<?xml version="1.0" encoding="iso-8859-1"?>
<!-- Generator: Adobe Illustrator 19.0.0, SVG Export Plug-In . SVG Version: 6.00 Build 0)  -->
<svg version="1.1" id="Layer_1" xmlns="http://www.w3.org/2000/svg" xmlns:xlink="http://www.w3.org/1999/xlink" x="0px" y="0px"
	 viewBox="0 0 496.159 496.159" style="enable-background:new 0 0 496.159 496.159;" xml:space="preserve">
<path style="fill:#334D5C;" d="M248.083,0.003C111.071,0.003,0,111.063,0,248.085c0,137.001,111.07,248.07,248.083,248.07
	c137.006,0,248.076-111.069,248.076-248.07C496.159,111.062,385.089,0.003,248.083,0.003z"/>
<path style="fill:#CCCCC2;" d="M176.746,319.745c-6.334-16.835-40.666-14.667-40.666-14.667s-16-3.999-14,5.333
	s11.5,2.667,9.333,9.334s-5.833,3.833-10,5.333s-9.833-1-10.667,4s-8.166,6.5-8,14s19.834,20,28.667,29.333
	s32.667,11.168,40.667,7.334S183.08,336.579,176.746,319.745z"/>
<path style="fill:#D5D6C9;" d="M248.082,65.476c-100.851,0-182.607,81.748-182.607,182.607
	c0,100.843,81.756,182.598,182.607,182.598c100.846,0,182.602-81.755,182.602-182.598
	C430.684,147.225,348.929,65.476,248.082,65.476z"/>
<path style="fill:#D8D8D6;" d="M243.582,95.975c-83.178,0-150.606,67.423-150.606,150.606c0,83.172,67.428,150.601,150.606,150.601
	c83.174,0,150.603-67.429,150.603-150.601C394.185,163.398,326.756,95.975,243.582,95.975z"/>
<path style="fill:#DDDDDD;" d="M237.582,129.976c-59.429,0-107.606,48.172-107.606,107.606c0,59.424,48.177,107.601,107.606,107.601
	c59.426,0,107.603-48.177,107.603-107.601C345.185,178.148,297.008,129.976,237.582,129.976z"/>
<circle style="fill:#E2E2E2;" cx="228.58" cy="228.579" r="43.604"/>
<g style="opacity:0.5;">
	<path style="fill:#CCCCC2;" d="M304.08,352.079c0,0-2-7-5-8s-15,1.5-18-6s5-5,5-11s-7.5-14-15-17s-9.5-10-21-10
		c-11.5,0-12,25-12,25s-16-2-22,4s-4,20-4,20s-1.5,9.5,0,16s11.5,11.5,15,13s10.5,4.5,15,7s7.5,10,13,1c5.5-9,13-8.5,20-11
		s-11.5-14-2-16s13,5.5,23,6S304.08,352.079,304.08,352.079z"/>
</g>
<path style="fill:#D5D6C9;" d="M380.08,337.079c0,0,3.833,18.208,5.86,30.743c8.254-9.494,15.534-19.854,21.706-30.917
	C394.145,337.349,380.08,337.079,380.08,337.079z"/>
<g style="opacity:0.5;">
	<path style="fill:#CCCCC2;" d="M233.08,184.079c-13-16-89.001-9-95-19s1.666-7.666-10.667-13.333s-19.333-10.667-19.333-10.667
		l-10.859,4.098c-6.872,10.055-12.768,20.829-17.544,32.19c0,0,9.403,0.046,12.403,6.379s14.332,47.333,22.666,53.333
		s20.334-8,32.334-10s30-6,47-10S246.08,200.079,233.08,184.079z"/>
</g>
<g style="opacity:0.5;">
	<path style="fill:#CCCCC2;" d="M282.413,105.745c-6.333-8.666-3.167-29.167-10-30.667s-18.834,4.666-29.333,3.334
		s-37.333-4-37.333-4l-10.912-1.04c-5.373,1.636-10.639,3.515-15.79,5.62c0,0,4.368,32.752,6.702,37.419c2.334,4.667,22,4,22,4
		s26.333-3.834,31.333-5.333s33.666,17.832,43.333,12.667S288.745,114.41,282.413,105.745z"/>
</g>
<g style="opacity:0.5;">
	<path style="fill:#CCCCC2;" d="M413.614,170.918c0,0-13.035-13.674-25.535-12.507s-17,10.999-30,13.333s-38.167-7.334-47.333-6
		s-12.834,12.166-8,20c4.834,7.834,41.833,28.166,53.333,28s18.5-25.167,26-22.667s45.703,24.417,45.703,24.417
		C424.964,199.85,420.145,184.905,413.614,170.918z"/>
</g>
<g style="opacity:0.5;">
	<path style="fill:#CCCCC2;" d="M406.08,305.079c-6-3.5-23.5-4-25-10s19.5-5,16-12s-17.5-4.5-27-6s-16.5,2-21,5s-26,30-25,36
		s13,8,14,17s10,11,13,19s-0.5,14,0,20s5,13,11,14c0.85,0.142,1.945,0.139,3.194,0.025c7.411-6.208,14.326-12.988,20.667-20.282
		c-2.028-12.535-10.861-23.743-5.861-30.743s14.065,0.27,27.566-0.174c3.775-6.767,7.136-13.796,10.041-21.058
		C416.08,305.579,412.08,308.579,406.08,305.079z"/>
</g>
<circle style="fill:#C1C1C1;" cx="299.64" cy="350.619" r="36.611"/>
<g>
	<circle style="fill:#D3D3D3;" cx="299.64" cy="349.619" r="32.611"/>
	<path style="fill:#D3D3D3;" d="M321.626,367.857c-2.423-2.422-6.233-2.54-8.511-0.261c-2.278,2.279-2.162,6.089,0.261,8.511
		c2.423,2.423,6.928,1.012,8.512,0.262C322.869,375.904,324.049,370.28,321.626,367.857z"/>
	
		<ellipse transform="matrix(-0.7071 -0.7071 0.7071 -0.7071 266.4332 859.5829)" style="fill:#D3D3D3;" cx="311.242" cy="374.611" rx="6.203" ry="5.834"/>
	<path style="fill:#D3D3D3;" d="M309.251,372.607c-2.423-2.422-6.233-2.54-8.511-0.261c-2.278,2.279-2.162,6.089,0.261,8.511
		c2.423,2.423,5.887,4.262,8.512,0.262C311.28,378.425,311.674,375.03,309.251,372.607z"/>
	<path style="fill:#D3D3D3;" d="M301.126,372.857c-2.423-2.422-6.233-2.54-8.511-0.261c-2.278,2.279-2.162,6.089,0.261,8.511
		c2.423,2.423,3.762,5.262,8.512,0.262C303.607,379.033,303.549,375.28,301.126,372.857z"/>
	<path style="fill:#D3D3D3;" d="M288.142,374.224c-3.519-1.232-6.897-0.727-7.548,1.129c0,0,2.294,5.266,3.294,5.766
		c3.335,1.667,8.795,0.556,9.446-1.302C293.984,377.961,291.66,375.457,288.142,374.224z"/>
	<path style="fill:#D3D3D3;" d="M281.375,369.456c-3.514-2.651-7.323-3.527-8.508-1.958c0,0,1.146,6.14,2.106,7.042
		c3.202,3.007,9.432,4.131,10.617,2.56C286.776,375.531,284.889,372.109,281.375,369.456z"/>
	<path style="fill:#D3D3D3;" d="M274.459,361.808c-1.207-3.527-3.694-5.87-5.555-5.234c-1.862,0.637-1.665,6.392-1.186,7.54
		c0.42,1.006,3.693,5.871,5.556,5.233C275.134,368.711,275.665,365.335,274.459,361.808z"/>
	<path style="fill:#D3D3D3;" d="M273.163,332.037c-1.873-0.604-5.052,4.238-5.465,5.328c-0.727,1.921-0.558,6.914,1.316,7.518
		c1.871,0.605,4.318-1.78,5.464-5.328C275.623,336.007,275.034,332.642,273.163,332.037z"/>
	
		<ellipse transform="matrix(-0.9516 -0.3073 0.3073 -0.9516 431.9958 736.187)" style="fill:#D3D3D3;" cx="273.958" cy="334.082" rx="3.563" ry="6.75"/>
	<path style="fill:#D3D3D3;" d="M270.379,342.848c-1.964-0.121-4.096,2.792-3.972,6.518c0.064,1.92,1.176,6.835,3.141,6.956
		c1.963,0.122,3.741-2.796,3.97-6.518C273.747,346.083,272.341,342.969,270.379,342.848z"/>
	<path style="fill:#D3D3D3;" d="M330.413,352.412c-1.873-0.604-4.319,1.781-5.465,5.328c-1.145,3.548-0.558,6.914,1.316,7.518
		c1.871,0.605,3.433-2.202,5.464-5.328C332.471,358.786,332.284,353.017,330.413,352.412z"/>
	
		<ellipse transform="matrix(-0.9516 -0.3073 0.3073 -0.9516 521.6308 813.0263)" style="fill:#D3D3D3;" cx="324.826" cy="365.445" rx="3.563" ry="6.75"/>
	<path style="fill:#D3D3D3;" d="M332.949,348.353c-0.486-3.696-2.949-6.278-4.873-5.874c-1.926,0.405-2.865,3.689-2.1,7.338
		c0.768,3.648,2.948,6.278,4.875,5.873C332.775,355.287,333.138,349.786,332.949,348.353z"/>
	<path style="fill:#D3D3D3;" d="M326.138,328.619c-0.202-1.163-3.333-3-4.123-3.029c-1.966-0.073-2.865,3.689-2.1,7.338
		c0.768,3.648,2.948,6.278,4.875,5.873C326.714,338.397,326.804,332.453,326.138,328.619z"/>
	<path style="fill:#D3D3D3;" d="M332.013,339.838c-0.308-1.352-2.949-6.278-4.873-5.874c-1.926,0.405-2.865,3.689-2.1,7.338
		c0.768,3.648,2.948,6.278,4.875,5.873C331.839,346.772,332.304,341.119,332.013,339.838z"/>
	<path style="fill:#D3D3D3;" d="M317.304,320.453c-3.519-1.231-9.063-1.703-9.712,0.153c-0.649,1.857,1.676,4.36,5.194,5.592
		c3.52,1.23,6.898,0.724,7.548-1.134C320.984,323.208,317.304,320.453,317.304,320.453z"/>
	<path style="fill:#D3D3D3;" d="M306.971,316.119c0,0-5.851-1.022-6.5,0.833c-0.649,1.857,1.421,5.263,4.94,6.495
		c3.52,1.23,6.898,0.724,7.548-1.134C313.609,320.458,310.491,317.35,306.971,316.119z"/>
	<path style="fill:#D3D3D3;" d="M288.629,321.329c-0.925-1.737-6.324-0.542-7.632,0.03c-3.416,1.494-5.208,4.581-4.281,6.318
		c0.924,1.736,4.341,1.723,7.631-0.03C287.637,325.892,289.554,323.064,288.629,321.329z"/>
	<path style="fill:#D3D3D3;" d="M299.33,318.333c-0.536-1.894-6.064-1.87-7.465-1.591c-2.728,0.544-6.061,3.371-5.525,5.265
		c0.534,1.892,3.876,2.605,7.464,1.59S299.866,320.225,299.33,318.333z"/>
</g>
<circle style="fill:#CCCCC2;" cx="299.64" cy="349.619" r="30.778"/>
<path style="fill:#BFBFBA;" d="M299.639,318.841c-17,0-30.779,13.778-30.779,30.778c0,0.963,5.977-24.913,30.006-24.913
	c24.029,0,31.551,26.069,31.551,24.913C330.416,332.62,316.636,318.841,299.639,318.841z"/>
<circle style="fill:#C1C1C1;" cx="242.56" cy="255.509" r="25.278"/>
<g>
	<circle style="fill:#D3D3D3;" cx="242.56" cy="254.819" r="22.516"/>
	<path style="fill:#D3D3D3;" d="M257.745,267.41c-1.673-1.672-4.303-1.753-5.876-0.18s-1.493,4.204,0.18,5.876
		c1.673,1.673,4.784,0.699,5.877,0.181C258.603,272.966,259.418,269.083,257.745,267.41z"/>
	
		<ellipse transform="matrix(-0.7071 -0.7071 0.7071 -0.7071 235.3672 641.6624)" style="fill:#D3D3D3;" cx="250.576" cy="272.085" rx="4.283" ry="4.03"/>
	<path style="fill:#D3D3D3;" d="M249.201,270.69c-1.673-1.672-4.303-1.753-5.876-0.18c-1.573,1.573-1.492,4.204,0.181,5.876
		s4.064,2.942,5.876,0.181C250.602,274.707,250.873,272.363,249.201,270.69z"/>
	<path style="fill:#D3D3D3;" d="M243.591,270.862c-1.673-1.672-4.304-1.753-5.877-0.18s-1.492,4.204,0.181,5.876
		c1.673,1.673,2.597,3.633,5.877,0.181C245.304,275.126,245.264,272.535,243.591,270.862z"/>
	<path style="fill:#D3D3D3;" d="M234.626,271.806c-2.429-0.851-4.762-0.501-5.211,0.78c0,0,1.584,3.636,2.274,3.981
		c2.303,1.151,6.073,0.383,6.522-0.899C238.66,274.387,237.055,272.657,234.626,271.806z"/>
	<path style="fill:#D3D3D3;" d="M229.954,268.515c-2.426-1.831-5.056-2.436-5.874-1.352c0,0,0.791,4.239,1.454,4.861
		c2.211,2.076,6.512,2.853,7.331,1.768C233.683,272.708,232.38,270.346,229.954,268.515z"/>
	<path style="fill:#D3D3D3;" d="M225.179,263.233c-0.833-2.436-2.551-4.053-3.836-3.614c-1.285,0.44-1.149,4.414-0.818,5.206
		c0.29,0.694,2.55,4.054,3.835,3.613C225.645,267.999,226.012,265.669,225.179,263.233z"/>
	<path style="fill:#D3D3D3;" d="M224.284,242.679c-1.292-0.417-3.488,2.926-3.773,3.679c-0.502,1.326-0.385,4.773,0.908,5.19
		c1.292,0.418,2.981-1.229,3.772-3.679C225.983,245.42,225.576,243.096,224.284,242.679z"/>
	
		<ellipse transform="matrix(-0.9516 -0.3073 0.3073 -0.9516 363.7715 545.4555)" style="fill:#D3D3D3;" cx="224.83" cy="244.088" rx="2.46" ry="4.66"/>
	<path style="fill:#D3D3D3;" d="M222.362,250.143c-1.356-0.083-2.828,1.927-2.742,4.5c0.044,1.326,0.813,4.72,2.169,4.803
		c1.355,0.084,2.583-1.931,2.741-4.5C224.688,252.377,223.717,250.226,222.362,250.143z"/>
	<path style="fill:#D3D3D3;" d="M263.812,256.746c-1.293-0.417-2.982,1.229-3.773,3.679c-0.791,2.45-0.385,4.773,0.909,5.191
		c1.292,0.417,2.37-1.52,3.772-3.679C265.233,261.147,265.104,257.163,263.812,256.746z"/>
	
		<ellipse transform="matrix(-0.9516 -0.3074 0.3074 -0.9516 425.6753 598.5964)" style="fill:#D3D3D3;" cx="259.98" cy="265.774" rx="2.46" ry="4.66"/>
	<path style="fill:#D3D3D3;" d="M265.563,253.944c-0.335-2.552-2.036-4.334-3.364-4.056c-1.33,0.28-1.979,2.547-1.45,5.066
		c0.53,2.519,2.035,4.335,3.366,4.055C265.443,258.731,265.693,254.933,265.563,253.944z"/>
	<path style="fill:#D3D3D3;" d="M260.86,240.318c-0.14-0.803-2.302-2.071-2.847-2.091c-1.357-0.05-1.978,2.547-1.449,5.066
		c0.53,2.519,2.035,4.335,3.365,4.055C261.258,247.07,261.32,242.965,260.86,240.318z"/>
	<path style="fill:#D3D3D3;" d="M264.916,248.065c-0.212-0.933-2.036-4.334-3.364-4.056c-1.33,0.28-1.979,2.547-1.45,5.066
		c0.53,2.519,2.036,4.335,3.366,4.055C264.796,252.852,265.118,248.949,264.916,248.065z"/>
	<path style="fill:#D3D3D3;" d="M254.761,234.68c-2.43-0.85-6.258-1.176-6.706,0.105c-0.448,1.282,1.157,3.01,3.586,3.861
		c2.43,0.85,4.763,0.5,5.211-0.783C257.302,236.582,254.761,234.68,254.761,234.68z"/>
	<path style="fill:#D3D3D3;" d="M247.627,231.688c0,0-4.04-0.706-4.488,0.576c-0.449,1.282,0.981,3.634,3.411,4.484
		c2.43,0.849,4.763,0.5,5.211-0.783C252.209,234.683,250.057,232.538,247.627,231.688z"/>
	<path style="fill:#D3D3D3;" d="M234.962,235.285c-0.639-1.199-4.366-0.375-5.27,0.021c-2.358,1.031-3.596,3.163-2.956,4.362
		c0.638,1.199,2.997,1.19,5.269-0.021S235.601,236.483,234.962,235.285z"/>
	<path style="fill:#D3D3D3;" d="M242.351,233.217c-0.37-1.308-4.187-1.292-5.154-1.099c-1.883,0.375-4.185,2.328-3.814,3.635
		c0.369,1.307,2.676,1.799,5.153,1.098C241.013,236.15,242.721,234.523,242.351,233.217z"/>
</g>
<circle style="fill:#E2E2E2;" cx="242.56" cy="254.819" r="21.25"/>
<path style="fill:#BFBFBA;" d="M242.564,233.567c-11.737,0-21.251,9.513-21.251,21.251c0,0.665,4.127-17.201,20.718-17.201
	c16.59,0,21.784,18,21.784,17.201C263.814,243.08,254.3,233.567,242.564,233.567z"/>
<path style="fill:#C1C1C1;" d="M419.949,228.993c-2.693-13.659-12.94-22.895-22.886-20.631
	c-9.947,2.264-15.827,15.169-13.134,28.828c2.693,13.657,12.94,22.894,22.887,20.63
	C416.762,255.556,422.642,242.649,419.949,228.993z"/>
<g>
	<path style="fill:#D3D3D3;" d="M417.848,228.765c-2.399-12.167-11.527-20.393-20.386-18.376
		c-8.859,2.016-14.098,13.512-11.698,25.679c2.399,12.165,11.526,20.392,20.386,18.375
		C415.009,252.426,420.247,240.93,417.848,228.765z"/>
	<path style="fill:#D3D3D3;" d="M415.051,242.272c-1.515-1.365-3.404-1.018-4.221,0.777c-0.818,1.793-0.252,4.354,1.262,5.72
		c1.515,1.365,3.543-0.092,4.222-0.776C416.734,247.569,416.566,243.638,415.051,242.272z"/>
	<path style="fill:#D3D3D3;" d="M412.326,244.746c-1.514-1.365-3.404-1.018-4.222,0.776c-0.817,1.794-0.252,4.354,1.263,5.72
		s3.405,1.018,4.222-0.776C414.406,248.671,413.841,246.111,412.326,244.746z"/>
	<path style="fill:#D3D3D3;" d="M409.596,246.867c-1.514-1.365-3.404-1.018-4.222,0.776c-0.817,1.794-0.251,4.354,1.263,5.72
		c1.515,1.365,3.463,2.22,4.222-0.776C411.37,250.569,411.111,248.232,409.596,246.867z"/>
	<path style="fill:#D3D3D3;" d="M405.633,247.945c-1.514-1.365-3.405-1.017-4.222,0.776c-0.817,1.794-0.252,4.355,1.262,5.72
		c1.515,1.365,2.552,3.133,4.223-0.776C407.676,251.838,407.148,249.31,405.633,247.945z"/>
	<path style="fill:#D3D3D3;" d="M399.428,250.321c-1.895-0.438-3.489,0.282-3.563,1.608c0,0,1.83,3.301,2.389,3.526
		c1.862,0.753,4.4-0.61,4.473-1.937C402.8,252.192,401.323,250.761,399.428,250.321z"/>
	<path style="fill:#D3D3D3;" d="M395.464,247.859c-2.082-1.397-4.072-1.563-4.446-0.37c0,0,1.381,4.019,1.974,4.52
		c1.975,1.672,5.19,1.734,5.563,0.541C398.93,251.357,397.546,249.257,395.464,247.859z"/>
	<path style="fill:#D3D3D3;" d="M391.043,243.467c-1.063-2.248-2.599-3.552-3.43-2.914c-0.831,0.639,0.032,4.504,0.421,5.225
		c0.34,0.632,2.599,3.553,3.43,2.913C392.295,248.054,392.107,245.715,391.043,243.467z"/>
	<path style="fill:#D3D3D3;" d="M386.44,223.504c-1.001-0.199-1.921,3.428-1.978,4.21c-0.102,1.379,0.646,4.732,1.648,4.931
		c1.001,0.199,1.888-1.686,1.979-4.211C388.179,225.91,387.441,223.702,386.44,223.504z"/>
	<path style="fill:#D3D3D3;" d="M387.271,220.226c-1.001-0.199-1.887,1.686-1.978,4.21c-0.091,2.525,0.646,4.732,1.649,4.931
		c1.001,0.199,1.887-1.686,1.978-4.21C389.012,222.633,388.272,220.425,387.271,220.226z"/>
	<path style="fill:#D3D3D3;" d="M388.982,235.465c-0.383-2.539-1.49-4.485-2.471-4.347c-0.982,0.138-1.643,2.344-1.086,4.847
		c0.288,1.29,1.489,4.485,2.472,4.347C388.879,240.174,389.365,238.004,388.982,235.465z"/>
	<path style="fill:#D3D3D3;" d="M417.316,230.856c-1.002-0.198-1.887,1.686-1.978,4.21c-0.091,2.525,0.646,4.732,1.648,4.931
		c1.001,0.199,1.396-1.872,1.979-4.211C419.178,234.931,418.317,231.055,417.316,230.856z"/>
	<path style="fill:#D3D3D3;" d="M416.477,235.723c-1.002-0.199-1.888,1.686-1.979,4.21c-0.091,2.525,0.646,4.732,1.648,4.931
		c1.001,0.199,1.887-1.686,1.978-4.21C418.216,238.129,417.478,235.922,416.477,235.723z"/>
	<path style="fill:#D3D3D3;" d="M418.023,227.831c-0.731-2.442-2.287-3.91-3.18-3.422c-0.894,0.49-0.918,2.813-0.056,5.192
		c0.864,2.378,2.286,3.911,3.181,3.421C418.861,232.534,418.307,228.778,418.023,227.831z"/>
	<path style="fill:#D3D3D3;" d="M412.044,215.264c-0.254-0.763-2.04-1.653-2.432-1.584c-0.977,0.171-0.918,2.813-0.056,5.191
		c0.864,2.378,2.287,3.911,3.18,3.421C413.63,221.804,412.883,217.779,412.044,215.264z"/>
	<path style="fill:#D3D3D3;" d="M416.429,222.184c-0.332-0.878-2.287-3.91-3.18-3.422c-0.894,0.49-0.918,2.813-0.055,5.192
		c0.863,2.378,2.286,3.911,3.18,3.421C417.267,226.888,416.742,223.017,416.429,222.184z"/>
	<path style="fill:#D3D3D3;" d="M406.611,210.737c-1.895-0.438-4.686-0.136-4.757,1.191c-0.072,1.327,1.405,2.757,3.3,3.195
		c1.896,0.437,3.491-0.283,3.563-1.611C408.788,212.186,406.611,210.737,406.611,210.737z"/>
	<path style="fill:#D3D3D3;" d="M400.951,208.967c0,0-3.014-0.036-3.086,1.291c-0.073,1.327,1.4,3.396,3.295,3.834
		c1.895,0.437,3.489-0.283,3.562-1.611C404.793,211.154,402.846,209.404,400.951,208.967z"/>
	<path style="fill:#D3D3D3;" d="M392.622,214.539c-0.686-1.07-3.183,0.341-3.75,0.874c-1.482,1.392-1.952,3.677-1.265,4.747
		c0.686,1.069,2.365,0.678,3.75-0.875C392.741,217.733,393.308,215.607,392.622,214.539z"/>
	<path style="fill:#D3D3D3;" d="M397.487,211.318c-0.516-1.219-3.232-0.585-3.884-0.239c-1.269,0.673-2.533,2.956-2.017,4.175
		c0.515,1.219,2.254,1.326,3.883,0.239C397.1,214.405,398.002,212.536,397.487,211.318z"/>
</g>
<path style="fill:#D5D6C9;" d="M416.946,228.97c-2.264-11.482-10.878-19.247-19.24-17.344s-13.305,12.753-11.041,24.235
	c2.265,11.481,10.878,19.246,19.24,17.343S419.21,240.451,416.946,228.97z"/>
<path style="fill:#BFBFBA;" d="M397.706,211.626c-8.362,1.903-13.305,12.752-11.041,24.235c0.129,0.65-0.378-17.497,11.442-20.188
	c11.82-2.69,18.993,14.077,18.839,13.296C414.682,217.487,406.067,209.723,397.706,211.626z"/>
<circle style="fill:#C1C1C1;" cx="279.02" cy="148.589" r="44.28"/>
<circle style="fill:#D3D3D3;" cx="279.02" cy="147.379" r="39.44"/>
<path style="fill:#BFBFBA;" d="M279.022,110.156c-20.559,0-37.225,16.664-37.225,37.224c0,1.165,7.229-30.13,36.29-30.13
	c29.061,0,38.158,31.529,38.158,30.13C316.245,126.82,299.579,110.156,279.022,110.156z"/>
<ellipse style="fill:#C1C1C1;" cx="126.49" cy="287.429" rx="23.92" ry="29.28"/>
<g>
	<ellipse style="fill:#D3D3D3;" cx="126.49" cy="286.629" rx="21.307" ry="26.08"/>
	<path style="fill:#D3D3D3;" d="M140.858,301.211c-1.583-1.937-4.072-2.031-5.561-0.208c-1.488,1.821-1.412,4.869,0.171,6.806
		c1.583,1.938,4.526,0.81,5.561,0.209C141.67,307.647,142.441,303.149,140.858,301.211z"/>
	<path style="fill:#D3D3D3;" d="M136.774,303.31c-1.583-1.937-4.072-2.031-5.561-0.208c-1.488,1.822-1.412,4.869,0.171,6.806
		c1.583,1.938,4.072,2.032,5.561,0.209C138.434,308.295,138.357,305.248,136.774,303.31z"/>
	<path style="fill:#D3D3D3;" d="M132.773,305.01c-1.583-1.937-4.072-2.031-5.561-0.208c-1.488,1.821-1.412,4.869,0.171,6.806
		c1.583,1.938,3.846,3.408,5.561,0.209C134.099,309.663,134.355,306.948,132.773,305.01z"/>
	<path style="fill:#D3D3D3;" d="M127.465,305.21c-1.583-1.937-4.073-2.03-5.561-0.209c-1.488,1.822-1.412,4.87,0.171,6.807
		c1.583,1.938,2.458,4.208,5.561,0.209C129.085,310.149,129.048,307.147,127.465,305.21z"/>
	<path style="fill:#D3D3D3;" d="M118.981,306.303c-2.299-0.985-4.507-0.581-4.932,0.903c0,0,1.499,4.212,2.152,4.612
		c2.179,1.333,5.747,0.444,6.171-1.042C122.799,309.292,121.28,307.289,118.981,306.303z"/>
	<path style="fill:#D3D3D3;" d="M114.56,302.491c-2.296-2.12-4.785-2.821-5.559-1.565c0,0,0.749,4.91,1.376,5.63
		c2.092,2.405,6.162,3.304,6.937,2.047C118.089,307.348,116.856,304.611,114.56,302.491z"/>
	<path style="fill:#D3D3D3;" d="M110.042,296.374c-0.789-2.821-2.414-4.695-3.63-4.186c-1.216,0.51-1.087,5.112-0.774,6.029
		c0.274,0.804,2.413,4.695,3.629,4.185C110.483,301.894,110.83,299.195,110.042,296.374z"/>
	<path style="fill:#D3D3D3;" d="M109.195,272.566c-1.223-0.483-3.301,3.389-3.57,4.261c-0.475,1.536-0.365,5.529,0.859,6.012
		c1.223,0.484,2.821-1.424,3.57-4.261C110.803,275.742,110.418,273.05,109.195,272.566z"/>
	<path style="fill:#D3D3D3;" d="M111.073,269.067c-1.223-0.483-2.821,1.424-3.57,4.261c-0.748,2.838-0.364,5.529,0.86,6.013
		c1.223,0.484,2.821-1.424,3.57-4.261C112.681,272.243,112.296,269.551,111.073,269.067z"/>
	<path style="fill:#D3D3D3;" d="M107.376,281.212c-1.283-0.097-2.675,2.232-2.595,5.212c0.042,1.535,0.769,5.466,2.052,5.563
		c1.283,0.097,2.445-2.236,2.594-5.212S108.658,281.308,107.376,281.212z"/>
	<path style="fill:#D3D3D3;" d="M146.599,288.86c-1.223-0.483-2.821,1.424-3.57,4.261c-0.748,2.838-0.364,5.529,0.86,6.013
		c1.222,0.483,2.242-1.761,3.569-4.261C147.944,293.957,147.822,289.344,146.599,288.86z"/>
	<path style="fill:#D3D3D3;" d="M144.312,294.158c-1.224-0.484-2.822,1.424-3.57,4.261c-0.749,2.838-0.365,5.529,0.859,6.012
		c1.223,0.483,2.821-1.423,3.569-4.261C145.919,297.333,145.535,294.642,144.312,294.158z"/>
	<path style="fill:#D3D3D3;" d="M148.256,285.614c-0.317-2.956-1.926-5.021-3.184-4.697c-1.259,0.324-1.872,2.95-1.372,5.868
		c0.501,2.917,1.926,5.021,3.185,4.697C148.143,291.16,148.379,286.76,148.256,285.614z"/>
	<path style="fill:#D3D3D3;" d="M143.806,269.832c-0.132-0.93-2.178-2.399-2.694-2.422c-1.285-0.059-1.872,2.95-1.372,5.868
		c0.501,2.917,1.926,5.021,3.185,4.697C144.182,277.652,144.241,272.898,143.806,269.832z"/>
	<path style="fill:#D3D3D3;" d="M147.644,278.805c-0.201-1.081-1.927-5.021-3.184-4.698c-1.258,0.324-1.872,2.951-1.372,5.868
		c0.501,2.918,1.926,5.021,3.185,4.697C147.53,284.35,147.834,279.829,147.644,278.805z"/>
	<path style="fill:#D3D3D3;" d="M138.035,263.302c-2.299-0.984-5.921-1.362-6.346,0.122c-0.424,1.485,1.096,3.487,3.394,4.472
		c2.299,0.984,4.507,0.579,4.931-0.907C140.438,265.506,138.035,263.302,138.035,263.302z"/>
	<path style="fill:#D3D3D3;" d="M131.284,259.837c0,0-3.823-0.818-4.247,0.667c-0.425,1.485,0.929,4.209,3.228,5.194
		c2.299,0.983,4.506,0.579,4.931-0.907C135.62,263.306,133.583,260.821,131.284,259.837z"/>
	<path style="fill:#D3D3D3;" d="M119.3,264.003c-0.605-1.389-4.132-0.434-4.986,0.024c-2.231,1.194-3.403,3.663-2.797,5.052
		c0.603,1.388,2.836,1.378,4.986-0.024C118.651,267.652,119.904,265.391,119.3,264.003z"/>
	<path style="fill:#D3D3D3;" d="M126.291,261.607c-0.35-1.515-3.962-1.496-4.877-1.272c-1.782,0.435-3.96,2.696-3.609,4.21
		c0.349,1.513,2.532,2.083,4.876,1.272C125.025,265.005,126.642,263.12,126.291,261.607z"/>
</g>
<ellipse style="fill:#D8D8D6;" cx="126.49" cy="286.629" rx="20.11" ry="24.613"/>
<path style="fill:#BFBFBA;" d="M126.493,262.014c-11.106,0-20.109,11.019-20.109,24.613c0,0.771,3.905-19.923,19.604-19.923
	s20.613,20.848,20.613,19.923C146.601,273.032,137.598,262.014,126.493,262.014z"/>
<ellipse transform="matrix(-0.9953 -0.0967 0.0967 -0.9953 250.1033 366.6931)" style="fill:#C1C1C1;" cx="133.937" cy="177.286" rx="27.946" ry="32.491"/>
<g>
	
		<ellipse transform="matrix(-0.9953 -0.0967 0.0967 -0.9953 250.3543 364.934)" style="fill:#D3D3D3;" cx="134.02" cy="176.4" rx="24.893" ry="28.941"/>
	<path style="fill:#D3D3D3;" d="M149.168,194.136c-1.632-2.318-4.517-2.704-6.443-0.859c-1.927,1.844-2.165,5.219-0.532,7.537
		c1.633,2.319,5.177,1.405,6.444,0.86C149.422,201.335,150.801,196.454,149.168,194.136z"/>
	<path style="fill:#D3D3D3;" d="M144.195,195.993c-1.633-2.318-4.517-2.703-6.443-0.859c-1.926,1.844-2.164,5.218-0.532,7.537
		s4.517,2.704,6.444,0.859C145.59,201.686,145.828,198.312,144.195,195.993z"/>
	<path style="fill:#D3D3D3;" d="M139.359,197.418c-1.633-2.319-4.517-2.704-6.444-0.858c-1.926,1.844-2.164,5.218-0.532,7.536
		c1.633,2.319,4.106,4.199,6.444,0.86C140.401,202.707,140.992,199.737,139.359,197.418z"/>
	<path style="fill:#D3D3D3;" d="M133.166,197.039c-1.633-2.318-4.518-2.703-6.444-0.859c-1.926,1.845-2.165,5.219-0.532,7.538
		c1.632,2.319,2.406,4.925,6.444,0.859C134.52,202.677,134.798,199.357,133.166,197.039z"/>
	<path style="fill:#D3D3D3;" d="M123.184,197.287c-2.567-1.348-5.178-1.151-5.831,0.44c0,0,1.291,4.822,2.007,5.337
		c2.391,1.719,6.635,1.14,7.288-0.453C127.302,201.02,125.751,198.636,123.184,197.287z"/>
	<path style="fill:#D3D3D3;" d="M118.452,192.577c-2.442-2.602-5.26-3.656-6.295-2.357c0,0,0.343,5.508,0.996,6.375
		c2.175,2.893,6.811,4.345,7.846,3.045C122.034,198.341,120.894,195.179,118.452,192.577z"/>
	<path style="fill:#D3D3D3;" d="M113.855,185.31c-0.614-3.206-2.303-5.458-3.771-5.034c-1.469,0.425-1.813,5.523-1.547,6.572
		c0.232,0.919,2.301,5.458,3.771,5.033C113.775,191.457,114.469,188.515,113.855,185.31z"/>
	<path style="fill:#D3D3D3;" d="M115.425,158.918c-1.37-0.672-4.201,3.37-4.608,4.303c-0.717,1.643-1.017,6.066,0.354,6.737
		c1.37,0.672,3.434-1.253,4.608-4.303C116.954,162.606,116.795,159.59,115.425,158.918z"/>
	<path style="fill:#D3D3D3;" d="M117.985,155.266c-1.37-0.672-3.434,1.254-4.609,4.303c-1.174,3.049-1.017,6.065,0.354,6.738
		c1.37,0.673,3.433-1.253,4.608-4.303C119.514,158.954,119.355,155.938,117.985,155.266z"/>
	<path style="fill:#D3D3D3;" d="M112.382,168.262c-1.481-0.252-3.351,2.164-3.577,5.464c-0.116,1.701,0.307,6.125,1.79,6.375
		c1.481,0.252,3.082-2.194,3.576-5.463S113.863,168.514,112.382,168.262z"/>
	<path style="fill:#D3D3D3;" d="M157.17,181.142c-1.371-0.671-3.434,1.254-4.609,4.303c-1.174,3.05-1.018,6.065,0.354,6.738
		c1.369,0.673,2.796-1.691,4.608-4.302C158.186,186.924,158.539,181.814,157.17,181.142z"/>
	<path style="fill:#D3D3D3;" d="M153.942,186.735c-1.371-0.672-3.434,1.254-4.609,4.303c-1.175,3.05-1.018,6.065,0.354,6.738
		c1.37,0.672,3.433-1.254,4.608-4.303C155.471,190.424,155.312,187.407,153.942,186.735z"/>
	<path style="fill:#D3D3D3;" d="M156.247,172.195c-1.498,0.216-2.494,3.048-2.225,6.327c0.27,3.279,1.701,5.764,3.199,5.548
		c1.496-0.214,2.244-5.047,2.223-6.326C159.393,174.443,157.744,171.981,156.247,172.195z"/>
	<path style="fill:#D3D3D3;" d="M155.964,159.809c-0.054-1.042-2.275-2.896-2.873-2.979c-1.488-0.21-2.493,3.047-2.224,6.326
		c0.27,3.28,1.7,5.764,3.198,5.548C155.562,168.489,156.141,163.245,155.964,159.809z"/>
	<path style="fill:#D3D3D3;" d="M159.464,170.154c-0.118-1.216-1.702-5.763-3.198-5.548c-1.498,0.216-2.494,3.048-2.225,6.327
		c0.271,3.279,1.701,5.763,3.199,5.548C158.737,176.266,159.576,171.306,159.464,170.154z"/>
	<path style="fill:#D3D3D3;" d="M149.955,151.944c-2.568-1.347-6.739-2.174-7.392-0.582c-0.652,1.593,0.899,3.976,3.466,5.323
		c2.568,1.347,5.179,1.149,5.832-0.444C152.513,154.65,149.955,151.944,149.955,151.944z"/>
	<path style="fill:#D3D3D3;" d="M142.476,147.353c0,0-4.357-1.335-5.009,0.256c-0.653,1.593,0.628,4.754,3.195,6.102
		c2.568,1.346,5.178,1.148,5.832-0.444C147.146,151.676,145.045,148.702,142.476,147.353z"/>
	<path style="fill:#D3D3D3;" d="M128.095,150.601c-0.554-1.602-4.758-0.947-5.801-0.537c-2.723,1.067-4.35,3.661-3.795,5.264
		c0.553,1.601,3.15,1.842,5.801,0.536C126.949,154.559,128.648,152.202,128.095,150.601z"/>
	<path style="fill:#D3D3D3;" d="M130.947,146.789c-2.118,0.279-4.894,2.53-4.649,4.242c0.244,1.711,2.721,2.587,5.534,1.956
		c2.813-0.632,4.895-2.531,4.65-4.242C136.237,147.033,132.035,146.645,130.947,146.789z"/>
</g>
<ellipse transform="matrix(-0.9953 -0.0967 0.0967 -0.9953 250.3543 364.934)" style="fill:#CCCCC2;" cx="134.02" cy="176.4" rx="23.493" ry="27.314"/>
<path style="fill:#BFBFBA;" d="M136.672,149.217c-12.915-1.255-24.566,9.898-26.025,24.914c-0.083,0.851,6.68-21.564,24.935-19.791
	s21.731,25.356,21.831,24.335C158.872,163.659,149.585,150.472,136.672,149.217z"/>
<g>
</g>
<g>
</g>
<g>
</g>
<g>
</g>
<g>
</g>
<g>
</g>
<g>
</g>
<g>
</g>
<g>
</g>
<g>
</g>
<g>
</g>
<g>
</g>
<g>
</g>
<g>
</g>
<g>
</g>
</svg>
