<?xml version="1.0" encoding="iso-8859-1"?>
<!-- Generator: Adobe Illustrator 19.0.0, SVG Export Plug-In . SVG Version: 6.00 Build 0)  -->
<svg version="1.1" id="Layer_1" xmlns="http://www.w3.org/2000/svg" xmlns:xlink="http://www.w3.org/1999/xlink" x="0px" y="0px"
	 viewBox="0 0 512 512" style="enable-background:new 0 0 512 512;" xml:space="preserve">
<g>
	<g>
		<path d="M431.978,175.287C423.535,85.626,347.833,15.238,256,15.238S88.465,85.626,80.022,175.287
			C34.57,183.558,0,223.437,0,271.238c0,53.775,43.749,97.524,97.524,97.524h36.571V332.19H97.524
			c-33.609,0-60.952-27.343-60.952-60.952s27.343-60.952,60.952-60.952h18.286V192c0-77.301,62.889-140.19,140.19-140.19
			S396.19,114.699,396.19,192v18.286h18.286c33.609,0,60.952,27.343,60.952,60.952s-27.343,60.952-60.952,60.952h-36.571v36.571
			h36.571c53.775,0,97.524-43.748,97.524-97.524C512,223.437,477.429,183.557,431.978,175.287z"/>
	</g>
</g>
<g>
	<g>
		<path d="M256,362.667c-13.444,0-24.381,10.937-24.381,24.381c0,13.444,10.937,24.381,24.381,24.381s24.381-10.937,24.381-24.381
			C280.381,373.604,269.444,362.667,256,362.667z"/>
	</g>
</g>
<g>
	<g>
		<path d="M256,277.333c-13.444,0-24.381,10.937-24.381,24.381s10.937,24.381,24.381,24.381s24.381-10.937,24.381-24.381
			S269.444,277.333,256,277.333z"/>
	</g>
</g>
<g>
	<g>
		<path d="M256,448c-13.444,0-24.382,10.937-24.382,24.381c0,6.512,2.536,12.634,7.14,17.24c4.606,4.606,10.726,7.141,17.24,7.141
			c0.001,0,0.005,0,0.005-0.001c13.438-0.001,24.374-10.935,24.379-24.387C280.376,458.934,269.439,448,256,448z"/>
	</g>
</g>
<g>
	<g>
		<circle cx="329.911" cy="344.381" r="24.381"/>
	</g>
</g>
<g>
	<g>
		<circle cx="182.101" cy="344.381" r="24.381"/>
	</g>
</g>
<g>
	<g>
		<circle cx="329.911" cy="429.714" r="24.381"/>
	</g>
</g>
<g>
	<g>
		<circle cx="182.101" cy="429.714" r="24.381"/>
	</g>
</g>
<g>
</g>
<g>
</g>
<g>
</g>
<g>
</g>
<g>
</g>
<g>
</g>
<g>
</g>
<g>
</g>
<g>
</g>
<g>
</g>
<g>
</g>
<g>
</g>
<g>
</g>
<g>
</g>
<g>
</g>
</svg>
